0
SECTION
2
HEADER
9
$INSUNITS
70
4
9
$ACADVER
1
AC1014
9
$HANDSEED
5
FFFF
0
ENDSEC
0
SECTION
2
TABLES
0
TABLE
2
VPORT
5
8
100
AcDbSymbolTable
0
ENDTAB
0
TABLE
2
LTYPE
5
5
100
AcDbSymbolTable
0
LTYPE
5
14
100
AcDbSymbolTableRecord
100
AcDbLinetypeTableRecord
2
BYBLOCK
70
0
0
LTYPE
5
15
100
AcDbSymbolTableRecord
100
AcDbLinetypeTableRecord
2
BYLAYER
70
0
0
ENDTAB
0
TABLE
2
LAYER
5
2
100
AcDbSymbolTable
70
2
0
LAYER
5
50
100
AcDbSymbolTableRecord
100
AcDbLayerTableRecord
2
0
70
0
6
CONTINUOUS
0
ENDTAB
0
TABLE
2
STYLE
5
3
100
AcDbSymbolTable
70
1
0
STYLE
5
11
100
AcDbSymbolTableRecord
100
AcDbTextStyleTableRecord
2
STANDARD
70
0
0
ENDTAB
0
TABLE
2
VIEW
5
6
100
AcDbSymbolTable
70
0
0
ENDTAB
0
TABLE
2
UCS
5
7
100
AcDbSymbolTable
70
0
0
ENDTAB
0
TABLE
2
APPID
5
9
100
AcDbSymbolTable
70
2
0
APPID
5
12
100
AcDbSymbolTableRecord
100
AcDbRegAppTableRecord
2
ACAD
70
0
0
ENDTAB
0
TABLE
2
DIMSTYLE
5
A
100
AcDbSymbolTable
70
1
0
ENDTAB
0
TABLE
2
BLOCK_RECORD
5
1
100
AcDbSymbolTable
70
1
0
BLOCK_RECORD
5
1F
100
AcDbSymbolTableRecord
100
AcDbBlockTableRecord
2
*MODEL_SPACE
0
BLOCK_RECORD
5
1B
100
AcDbSymbolTableRecord
100
AcDbBlockTableRecord
2
*PAPER_SPACE
0
ENDTAB
0
ENDSEC
0
SECTION
2
BLOCKS
0
BLOCK
5
20
100
AcDbEntity
100
AcDbBlockBegin
2
*MODEL_SPACE
0
ENDBLK
5
21
100
AcDbEntity
100
AcDbBlockEnd
0
BLOCK
5
1C
100
AcDbEntity
100
AcDbBlockBegin
2
*PAPER_SPACE
0
ENDBLK
5
1D
100
AcDbEntity
100
AcDbBlockEnd
0
ENDSEC
0
SECTION
2
ENTITIES
0
LWPOLYLINE
5
100
100
AcDbEntity
8
0
100
AcDbPolyline
90
2
70
1
43
0.0
10
-1.6583123951776091
20
-2.5000000000000613
10
1.6583123951777927
20
-2.4999999999999387
42
3.3166247903553985
0
CIRCLE
5
101
100
AcDbEntity
8
0
100
AcDbCircle
10
1.2490009027033011e-15
20
-2.4286128663675299e-16
30
0
40
40
210
-0
220
0
230
1
0
ARC
5
102
100
AcDbEntity
8
0
100
AcDbCircle
10
-53.339865533981794
20
19.850434910307037
30
0
40
3
210
0
220
0
230
1
100
AcDbArc
50
-56.4426902380835
51
236.44269023807487
0
ARC
5
103
100
AcDbEntity
8
0
100
AcDbCircle
10
-53.339865533981794
20
19.850434910307037
30
0
40
3
210
0
220
0
230
1
100
AcDbArc
50
-56.4426902380835
51
236.44269023807487
0
ARC
5
104
100
AcDbEntity
8
0
100
AcDbCircle
10
-52.905555581668288
20
-2.5165276338379079
30
0
40
2.9999999999999991
210
0
220
0
230
1
100
AcDbArc
50
-56.4426902380836
51
236.44269023807479
0
ARC
5
105
100
AcDbEntity
8
0
100
AcDbCircle
10
-52.905555581668288
20
-2.5165276338379079
30
0
40
2.9999999999999991
210
0
220
0
230
1
100
AcDbArc
50
-56.4426902380836
51
236.44269023807479
0
CIRCLE
5
106
100
AcDbEntity
8
0
100
AcDbCircle
10
0
20
0
30
0
40
40
210
-0
220
0
230
1
0
CIRCLE
5
107
100
AcDbEntity
8
0
100
AcDbCircle
10
0
20
0
30
0
40
40
210
-0
220
0
230
1
0
ARC
5
108
100
AcDbEntity
8
0
100
AcDbCircle
10
-53.339865533981794
20
-62.149565089692977
30
0
40
2.9999999999999947
210
0
220
0
230
1
100
AcDbArc
50
-56.442690238083699
51
236.4426902380745
0
ARC
5
109
100
AcDbEntity
8
0
100
AcDbCircle
10
-53.339865533981794
20
-62.149565089692977
30
0
40
2.9999999999999947
210
0
220
0
230
1
100
AcDbArc
50
-56.442690238083699
51
236.4426902380745
0
LWPOLYLINE
5
110
100
AcDbEntity
8
0
100
AcDbPolyline
90
2
70
1
43
0.0
10
-54.998177929159688
20
17.350434910307165
42
-3.3166247903553905
10
-51.681553138804276
20
17.350434910306912
0
CIRCLE
5
111
100
AcDbEntity
8
0
100
AcDbCircle
10
-53.339865533981794
20
19.850434910307037
30
0
40
10
210
-0
220
0
230
1
0
CIRCLE
5
112
100
AcDbEntity
8
0
100
AcDbCircle
10
-52.905555581668295
20
-84.51652763383791
30
0
40
10
210
-0
220
0
230
1
0
CIRCLE
5
113
100
AcDbEntity
8
0
100
AcDbCircle
10
-52.905555581668295
20
-84.51652763383791
30
0
40
10
210
-0
220
0
230
1
0
CIRCLE
5
114
100
AcDbEntity
8
0
100
AcDbCircle
10
-52.905555581668288
20
-24.51652763383791
30
0
40
10
210
-0
220
0
230
1
0
CIRCLE
5
115
100
AcDbEntity
8
0
100
AcDbCircle
10
-52.905555581668288
20
-24.51652763383791
30
0
40
10
210
-0
220
0
230
1
0
LINE
5
116
100
AcDbEntity
8
0
100
AcDbLine
10
-51.247243186490778
20
-5.0165276338380309
30
0
11
-54.563867976846183
21
-5.0165276338377787
31
0
0
LINE
5
117
100
AcDbEntity
8
0
100
AcDbLine
10
-54.563867976846183
20
-5.0165276338377787
30
0
11
-51.247243186490778
21
-5.0165276338380309
31
0
0
ARC
5
118
100
AcDbEntity
8
0
100
AcDbCircle
10
8.3266726846886741e-16
20
-82.000000000000014
30
0
40
3.0000000000000004
210
0
220
0
230
1
100
AcDbArc
50
-56.442690238077397
51
236.44269023808101
0
ARC
5
119
100
AcDbEntity
8
0
100
AcDbCircle
10
8.3266726846886741e-16
20
-82.000000000000014
30
0
40
3.0000000000000004
210
0
220
0
230
1
100
AcDbArc
50
-56.442690238077397
51
236.44269023808101
0
LWPOLYLINE
5
120
100
AcDbEntity
8
0
100
AcDbPolyline
90
2
70
1
43
0.0
10
-54.998177929159695
20
-64.649565089692828
42
-3.3166247903553825
10
-51.68155313880429
20
-64.649565089693098
0
CIRCLE
5
121
100
AcDbEntity
8
0
100
AcDbCircle
10
-53.339865533981794
20
-62.149565089692977
30
0
40
10
210
-0
220
0
230
1
0
CIRCLE
5
122
100
AcDbEntity
8
0
100
AcDbCircle
10
-53.339865533981801
20
-62.149565089692977
30
0
40
10
210
-0
220
0
230
1
0
CIRCLE
5
123
100
AcDbEntity
8
0
100
AcDbCircle
10
-53.339865533981801
20
-62.149565089692977
30
0
40
10
210
-0
220
0
230
1
0
ARC
5
124
100
AcDbEntity
8
0
100
AcDbCircle
10
1.2490009027033011e-15
20
-2.4286128663675299e-16
30
0
40
3.0000000000000004
210
0
220
0
230
1
100
AcDbArc
50
-56.44269023807724
51
236.4426902380813
0
ARC
5
125
100
AcDbEntity
8
0
100
AcDbCircle
10
1.2490009027033011e-15
20
-2.4286128663675299e-16
30
0
40
3.0000000000000004
210
0
220
0
230
1
100
AcDbArc
50
-56.44269023807724
51
236.4426902380813
0
LINE
5
126
100
AcDbEntity
8
0
100
AcDbLine
10
-51.681553138804276
20
17.350434910306916
30
0
11
-54.998177929159688
21
17.350434910307165
31
0
0
LINE
5
127
100
AcDbEntity
8
0
100
AcDbLine
10
-54.998177929159688
20
17.350434910307165
30
0
11
-51.681553138804276
21
17.350434910306916
31
0
0
LWPOLYLINE
5
128
100
AcDbEntity
8
0
100
AcDbPolyline
90
2
70
1
43
0.0
10
-54.56386797684619
20
-27.016527633837786
42
-3.3166247903553878
10
-51.247243186490778
20
-27.016527633838031
0
CIRCLE
5
129
100
AcDbEntity
8
0
100
AcDbCircle
10
-52.905555581668295
20
-24.516527633837907
30
0
40
10
210
-0
220
0
230
1
0
CIRCLE
5
130
100
AcDbEntity
8
0
100
AcDbCircle
10
-53.339865533981794
20
19.850434910307037
30
0
40
10
210
-0
220
0
230
1
0
CIRCLE
5
131
100
AcDbEntity
8
0
100
AcDbCircle
10
-53.339865533981794
20
19.850434910307037
30
0
40
10
210
-0
220
0
230
1
0
CIRCLE
5
132
100
AcDbEntity
8
0
100
AcDbCircle
10
-52.905555581668295
20
-106.51652763383792
30
0
40
10
210
-0
220
0
230
1
0
CIRCLE
5
133
100
AcDbEntity
8
0
100
AcDbCircle
10
-52.905555581668295
20
-106.51652763383792
30
0
40
10
210
-0
220
0
230
1
0
CIRCLE
5
134
100
AcDbEntity
8
0
100
AcDbCircle
10
-52.905555581668288
20
-2.5165276338379083
30
0
40
10
210
-0
220
0
230
1
0
CIRCLE
5
135
100
AcDbEntity
8
0
100
AcDbCircle
10
-52.905555581668288
20
-2.5165276338379083
30
0
40
10
210
-0
220
0
230
1
0
LWPOLYLINE
5
136
100
AcDbEntity
8
0
100
AcDbPolyline
90
2
70
1
43
0.0
10
-54.563867976846197
20
-87.016527633837796
42
-3.3166247903553958
10
-51.247243186490785
20
-87.016527633838038
0
CIRCLE
5
137
100
AcDbEntity
8
0
100
AcDbCircle
10
-52.905555581668324
20
-84.51652763383791
30
0
40
10
210
-0
220
0
230
1
0
ARC
5
138
100
AcDbEntity
8
0
100
AcDbCircle
10
-52.905555581668295
20
-106.51652763383792
30
0
40
3
210
0
220
0
230
1
100
AcDbArc
50
-56.442690238083657
51
236.44269023807493
0
ARC
5
139
100
AcDbEntity
8
0
100
AcDbCircle
10
-52.905555581668295
20
-106.51652763383792
30
0
40
3
210
0
220
0
230
1
100
AcDbArc
50
-56.442690238083657
51
236.44269023807493
0
LINE
5
140
100
AcDbEntity
8
0
100
AcDbLine
10
1.6583123951777878
20
-84.499999999999957
30
0
11
-1.6583123951776142
21
-84.500000000000057
31
0
0
LINE
5
141
100
AcDbEntity
8
0
100
AcDbLine
10
-1.6583123951776142
20
-84.500000000000057
30
0
11
1.6583123951777878
21
-84.499999999999957
31
0
0
CIRCLE
5
142
100
AcDbEntity
8
0
100
AcDbCircle
10
-5.0210518765041482e-15
20
-82.000000000000014
30
0
40
40
210
-0
220
0
230
1
0
CIRCLE
5
143
100
AcDbEntity
8
0
100
AcDbCircle
10
-5.0210518765041482e-15
20
-82.000000000000014
30
0
40
40
210
-0
220
0
230
1
0
LWPOLYLINE
5
144
100
AcDbEntity
8
0
100
AcDbPolyline
90
2
70
1
43
0.0
10
-54.563867976846197
20
-87.016527633837796
42
-3.3166247903553958
10
-51.247243186490785
20
-87.016527633838038
0
CIRCLE
5
145
100
AcDbEntity
8
0
100
AcDbCircle
10
-52.905555581668324
20
-84.51652763383791
30
0
40
10
210
-0
220
0
230
1
0
LWPOLYLINE
5
146
100
AcDbEntity
8
0
100
AcDbPolyline
90
2
70
1
43
0.0
10
-54.998177929159688
20
17.350434910307165
42
-3.3166247903553905
10
-51.681553138804276
20
17.350434910306912
0
CIRCLE
5
147
100
AcDbEntity
8
0
100
AcDbCircle
10
-53.339865533981794
20
19.850434910307037
30
0
40
10
210
-0
220
0
230
1
0
LINE
5
148
100
AcDbEntity
8
0
100
AcDbLine
10
1.6583123951777927
20
-2.4999999999999387
30
0
11
-1.6583123951776091
21
-2.5000000000000613
31
0
0
LINE
5
149
100
AcDbEntity
8
0
100
AcDbLine
10
-1.6583123951776091
20
-2.5000000000000613
30
0
11
1.6583123951777927
21
-2.4999999999999387
31
0
0
LWPOLYLINE
5
150
100
AcDbEntity
8
0
100
AcDbPolyline
90
2
70
1
43
0.0
10
-54.998177929159695
20
-64.649565089692828
42
-3.3166247903553825
10
-51.68155313880429
20
-64.649565089693098
0
CIRCLE
5
151
100
AcDbEntity
8
0
100
AcDbCircle
10
-53.339865533981794
20
-62.149565089692977
30
0
40
10
210
-0
220
0
230
1
0
LINE
5
152
100
AcDbEntity
8
0
100
AcDbLine
10
-51.247243186490785
20
-109.01652763383802
30
0
11
-54.56386797684619
21
-109.01652763383778
31
0
0
LINE
5
153
100
AcDbEntity
8
0
100
AcDbLine
10
-54.56386797684619
20
-109.01652763383778
30
0
11
-51.247243186490785
21
-109.01652763383802
31
0
0
LWPOLYLINE
5
154
100
AcDbEntity
8
0
100
AcDbPolyline
90
2
70
1
43
0.0
10
-54.56386797684619
20
-27.016527633837786
42
-3.3166247903553878
10
-51.247243186490778
20
-27.016527633838031
0
CIRCLE
5
155
100
AcDbEntity
8
0
100
AcDbCircle
10
-52.905555581668295
20
-24.516527633837907
30
0
40
10
210
-0
220
0
230
1
0
LWPOLYLINE
5
156
100
AcDbEntity
8
0
100
AcDbPolyline
90
2
70
1
43
0.0
10
1.6583123951777927
20
-2.4999999999999387
10
-1.6583123951776062
20
-2.5000000000000604
42
-3.3166247903553985
0
CIRCLE
5
157
100
AcDbEntity
8
0
100
AcDbCircle
10
1.2490009027033011e-15
20
-2.4286128663675299e-16
30
0
40
40
210
-0
220
0
230
1
0
LWPOLYLINE
5
158
100
AcDbEntity
8
0
100
AcDbPolyline
90
2
70
1
43
0.0
10
-54.563867976846183
20
-109.0165276338378
42
-3.3166247903554011
10
-51.247243186490785
20
-109.01652763383805
0
CIRCLE
5
159
100
AcDbEntity
8
0
100
AcDbCircle
10
-52.905555581668295
20
-106.51652763383792
30
0
40
10
210
-0
220
0
230
1
0
LINE
5
160
100
AcDbEntity
8
0
100
AcDbLine
10
-51.247243186490785
20
-87.016527633838038
30
0
11
-54.56386797684619
21
-87.016527633837782
31
0
0
LINE
5
161
100
AcDbEntity
8
0
100
AcDbLine
10
-54.56386797684619
20
-87.016527633837782
30
0
11
-51.247243186490785
21
-87.016527633838038
31
0
0
ARC
5
162
100
AcDbEntity
8
0
100
AcDbCircle
10
-52.905555581668295
20
-24.516527633837907
30
0
40
3.0000000000000049
210
0
220
0
230
1
100
AcDbArc
50
-56.4426902380835
51
236.4426902380749
0
ARC
5
163
100
AcDbEntity
8
0
100
AcDbCircle
10
-52.905555581668295
20
-24.516527633837907
30
0
40
3.0000000000000049
210
0
220
0
230
1
100
AcDbArc
50
-56.4426902380835
51
236.4426902380749
0
LWPOLYLINE
5
164
100
AcDbEntity
8
0
100
AcDbPolyline
90
2
70
1
43
0.0
10
-54.563867976846169
20
-5.0165276338377787
42
-3.3166247903553905
10
-51.247243186490778
20
-5.0165276338380318
0
CIRCLE
5
165
100
AcDbEntity
8
0
100
AcDbCircle
10
-52.905555581668288
20
-2.5165276338379079
30
0
40
10
210
-0
220
0
230
1
0
LWPOLYLINE
5
166
100
AcDbEntity
8
0
100
AcDbPolyline
90
2
70
1
43
0.0
10
-54.563867976846169
20
-5.0165276338377787
42
-3.3166247903553905
10
-51.247243186490778
20
-5.0165276338380318
0
CIRCLE
5
167
100
AcDbEntity
8
0
100
AcDbCircle
10
-52.905555581668288
20
-2.5165276338379079
30
0
40
10
210
-0
220
0
230
1
0
LWPOLYLINE
5
168
100
AcDbEntity
8
0
100
AcDbPolyline
90
2
70
1
43
0.0
10
1.6583123951777878
20
-84.499999999999957
10
-1.6583123951776169
20
-84.500000000000057
42
-3.3166247903553985
0
CIRCLE
5
169
100
AcDbEntity
8
0
100
AcDbCircle
10
8.3266726846886741e-16
20
-82.000000000000014
30
0
40
40
210
-0
220
0
230
1
0
LWPOLYLINE
5
170
100
AcDbEntity
8
0
100
AcDbPolyline
90
2
70
1
43
0.0
10
-54.563867976846183
20
-109.0165276338378
42
-3.3166247903554011
10
-51.247243186490785
20
-109.01652763383805
0
CIRCLE
5
171
100
AcDbEntity
8
0
100
AcDbCircle
10
-52.905555581668295
20
-106.51652763383792
30
0
40
10
210
-0
220
0
230
1
0
LINE
5
172
100
AcDbEntity
8
0
100
AcDbLine
10
-51.68155313880429
20
-64.649565089693098
30
0
11
-54.998177929159695
21
-64.649565089692828
31
0
0
LINE
5
173
100
AcDbEntity
8
0
100
AcDbLine
10
-54.998177929159695
20
-64.649565089692828
30
0
11
-51.68155313880429
21
-64.649565089693098
31
0
0
ARC
5
174
100
AcDbEntity
8
0
100
AcDbCircle
10
-52.905555581668324
20
-84.51652763383791
30
0
40
3.0000000000000151
210
0
220
0
230
1
100
AcDbArc
50
-56.442690238083195
51
236.4426902380753
0
ARC
5
175
100
AcDbEntity
8
0
100
AcDbCircle
10
-52.905555581668324
20
-84.51652763383791
30
0
40
3.0000000000000151
210
0
220
0
230
1
100
AcDbArc
50
-56.442690238083195
51
236.4426902380753
0
LINE
5
176
100
AcDbEntity
8
0
100
AcDbLine
10
-51.247243186490778
20
-27.016527633838031
30
0
11
-54.563867976846183
21
-27.016527633837782
31
0
0
LINE
5
177
100
AcDbEntity
8
0
100
AcDbLine
10
-54.563867976846183
20
-27.016527633837782
30
0
11
-51.247243186490778
21
-27.016527633838031
31
0
0
LWPOLYLINE
5
178
100
AcDbEntity
8
0
100
AcDbPolyline
90
2
70
1
43
0.0
10
-1.6583123951776142
20
-84.500000000000057
10
1.6583123951777881
20
-84.499999999999957
42
3.3166247903553985
0
CIRCLE
5
179
100
AcDbEntity
8
0
100
AcDbCircle
10
8.3266726846886741e-16
20
-82.000000000000014
30
0
40
40
210
-0
220
0
230
1
0
ENDSEC
0
SECTION
2
OBJECTS
0
DICTIONARY
5
C
100
AcDbDictionary
3
ACAD_GROUP
350
D
3
ACAD_MLINESTYLE
350
17
0
DICTIONARY
5
D
100
AcDbDictionary
0
DICTIONARY
5
1A
330
C
100
AcDbDictionary
0
DICTIONARY
5
17
100
AcDbDictionary
0
ENDSEC
0
EOF
